<svg width="35" height="35" viewBox="0 0 35 35" fill="none" xmlns="http://www.w3.org/2000/svg">
    <path d="M15.75 28H19.25V24.5H15.75V28ZM17.5 0C7.84 0 0 7.84 0 17.5C0 27.16 7.84 35 17.5 35C27.16 35 35 27.16 35 17.5C35 7.84 27.16 0 17.5 0ZM17.5 31.5C9.7825 31.5 3.5 25.2175 3.5 17.5C3.5 9.7825 9.7825 3.5 17.5 3.5C25.2175 3.5 31.5 9.7825 31.5 17.5C31.5 25.2175 25.2175 31.5 17.5 31.5ZM17.5 7C13.6325 7 10.5 10.1325 10.5 14H14C14 12.075 15.575 10.5 17.5 10.5C19.425 10.5 21 12.075 21 14C21 17.5 15.75 17.0625 15.75 22.75H19.25C19.25 18.8125 24.5 18.375 24.5 14C24.5 10.1325 21.3675 7 17.5 7Z" fill="black" fill-opacity="0.57"/>
    </svg>
